static pose
version=1
nRows=1
nColumns=397
inDegrees=no
endheader
time	R.Shoulder_tx	R.Shoulder_ty	R.Shoulder_tz	L.Shoulder_tx	L.Shoulder_ty	L.Shoulder_tz	R.Clavicle_tx	R.Clavicle_ty	R.Clavicle_tz	L.Clavicle_tx	L.Clavicle_ty	L.Clavicle_tz	R.Biceps_tx	R.Biceps_ty	R.Biceps_tz	R.Elbow_tx	R.Elbow_ty	R.Elbow_tz	R.MElbow_tx	R.MElbow_ty	R.MElbow_tz	R.Forearm_tx	R.Forearm_ty	R.Forearm_tz	R.Wrist_tx	R.Wrist_ty	R.Wrist_tz	L.Biceps_tx	L.Biceps_ty	L.Biceps_tz	L.Elbow_tx	L.Elbow_ty	L.Elbow_tz	L.MElbow_tx	L.MElbow_ty	L.MElbow_tz	L.Forearm_tx	L.Forearm_ty	L.Forearm_tz	L.Wrist_tx	L.Wrist_ty	L.Wrist_tz	R.ASIS_tx	R.ASIS_ty	R.ASIS_tz	L.ASIS_tx	L.ASIS_ty	L.ASIS_tz	R.PSIS_tx	R.PSIS_ty	R.PSIS_tz	S2_tx	S2_ty	S2_tz	L.PSIS_tx	L.PSIS_ty	L.PSIS_tz	R.TH1_tx	R.TH1_ty	R.TH1_tz	R.TH2_tx	R.TH2_ty	R.TH2_tz	R.TH3_tx	R.TH3_ty	R.TH3_tz	R.Knee_tx	R.Knee_ty	R.Knee_tz	R.MKnee_tx	R.MKnee_ty	R.MKnee_tz	R.SH1_tx	R.SH1_ty	R.SH1_tz	R.SH2_tx	R.SH2_ty	R.SH2_tz	R.SH3_tx	R.SH3_ty	R.SH3_tz	R.SH4_tx	R.SH4_ty	R.SH4_tz	R.Ankle_tx	R.Ankle_ty	R.Ankle_tz	R.MAnkle_tx	R.MAnkle_ty	R.MAnkle_tz	R.Heel_tx	R.Heel_ty	R.Heel_tz	R.MT5_tx	R.MT5_ty	R.MT5_tz	R.Toe_tx	R.Toe_ty	R.Toe_tz	L.TH1_tx	L.TH1_ty	L.TH1_tz	L.TH2_tx	L.TH2_ty	L.TH2_tz	L.TH3_tx	L.TH3_ty	L.TH3_tz	L.TH4_tx	L.TH4_ty	L.TH4_tz	L.Knee_tx	L.Knee_ty	L.Knee_tz	L.MKnee_tx	L.MKnee_ty	L.MKnee_tz	L.SH1_tx	L.SH1_ty	L.SH1_tz	L.SH2_tx	L.SH2_ty	L.SH2_tz	L.SH3_tx	L.SH3_ty	L.SH3_tz	L.Ankle_tx	L.Ankle_ty	L.Ankle_tz	L.MAnkle_tx	L.MAnkle_ty	L.MAnkle_tz	L.Heel_tx	L.Heel_ty	L.Heel_tz	L.MT5_tx	L.MT5_ty	L.MT5_tz	L.Toe_tx	L.Toe_ty	L.Toe_tz	R_HJC_tx	R_HJC_ty	R_HJC_tz	L_HJC_tx	L_HJC_ty	L_HJC_tz	L.HeelGround_tx	L.HeelGround_ty	L.HeelGround_tz	L.ToeGround_tx	L.ToeGround_ty	L.ToeGround_tz	L.MT5Ground_tx	L.MT5Ground_ty	L.MT5Ground_tz	L.AnkleJoint_tx	L.AnkleJoint_ty	L.AnkleJoint_tz	L.AnkleJointGround_tx	L.AnkleJointGround_ty	L.AnkleJointGround_tz	L.KneeJoint_tx	L.KneeJoint_ty	L.KneeJoint_tz	R.HeelGround_tx	R.HeelGround_ty	R.HeelGround_tz	R.ToeGround_tx	R.ToeGround_ty	R.ToeGround_tz	R.MT5Ground_tx	R.MT5Ground_ty	R.MT5Ground_tz	R.AnkleJoint_tx	R.AnkleJoint_ty	R.AnkleJoint_tz	R.AnkleJointGround_tx	R.AnkleJointGround_ty	R.AnkleJointGround_tz	R.KneeJoint_tx	R.KneeJoint_ty	R.KneeJoint_tz	MidASIS_tx	MidASIS_ty	MidASIS_tz	MidPSIS_tx	MidPSIS_ty	MidPSIS_tz	MidClavicle_tx	MidClavicle_ty	MidClavicle_tz	pelvis_tilt	pelvis_list	pelvis_rotation	pelvis_tx	pelvis_ty	pelvis_tz	hip_flexion_r	hip_adduction_r	hip_rotation_r	knee_angle_r	knee_angle_r_beta	ankle_angle_r	subtalar_angle_r	mtp_angle_r	hip_flexion_l	hip_adduction_l	hip_rotation_l	knee_angle_l	knee_angle_l_beta	ankle_angle_l	subtalar_angle_l	mtp_angle_l	lumbar_extension	lumbar_bending	lumbar_rotation	arm_flex_r	arm_add_r	arm_rot_r	elbow_flex_r	pro_sup_r	wrist_flex_r	wrist_dev_r	arm_flex_l	arm_add_l	arm_rot_l	elbow_flex_l	pro_sup_l	wrist_flex_l	wrist_dev_l	pelvis_tilt_u	pelvis_list_u	pelvis_rotation_u	pelvis_tx_u	pelvis_ty_u	pelvis_tz_u	hip_flexion_r_u	hip_adduction_r_u	hip_rotation_r_u	knee_angle_r_u	knee_angle_r_beta_u	ankle_angle_r_u	subtalar_angle_r_u	mtp_angle_r_u	hip_flexion_l_u	hip_adduction_l_u	hip_rotation_l_u	knee_angle_l_u	knee_angle_l_beta_u	ankle_angle_l_u	subtalar_angle_l_u	mtp_angle_l_u	lumbar_extension_u	lumbar_bending_u	lumbar_rotation_u	arm_flex_r_u	arm_add_r_u	arm_rot_r_u	elbow_flex_r_u	pro_sup_r_u	wrist_flex_r_u	wrist_dev_r_u	arm_flex_l_u	arm_add_l_u	arm_rot_l_u	elbow_flex_l_u	pro_sup_l_u	wrist_flex_l_u	wrist_dev_l_u	add_brev_r.activation	add_long_r.activation	add_long_r.fiber_length	add_mag3_r.activation	add_mag4_r.activation	add_mag4_r.fiber_length	add_mag2_r.activation	add_mag1_r.activation	bifemlh_r.activation	bifemlh_r.fiber_length	bifemsh_r.activation	ext_dig_r.activation	ext_dig_r.fiber_length	ext_hal_r.activation	ext_hal_r.fiber_length	flex_dig_r.activation	flex_dig_r.fiber_length	flex_hal_r.activation	flex_hal_r.fiber_length	lat_gas_r.activation	lat_gas_r.fiber_length	med_gas_r.activation	med_gas_r.fiber_length	glut_max1_r.activation	glut_max2_r.activation	glut_max3_r.activation	glut_med1_r.activation	glut_med2_r.activation	glut_med3_r.activation	glut_min1_r.activation	glut_min2_r.activation	glut_min3_r.activation	glut_min3_r.fiber_length	grac_r.activation	iliacus_r.activation	per_brev_r.activation	per_brev_r.fiber_length	per_long_r.activation	per_long_r.fiber_length	peri_r.activation	peri_r.fiber_length	psoas_r.activation	rect_fem_r.activation	rect_fem_r.fiber_length	sar_r.activation	semimem_r.activation	semimem_r.fiber_length	semiten_r.activation	semiten_r.fiber_length	soleus_r.activation	soleus_r.fiber_length	tfl_r.activation	tfl_r.fiber_length	tib_ant_r.activation	tib_ant_r.fiber_length	tib_post_r.activation	tib_post_r.fiber_length	vas_int_r.activation	vas_int_r.fiber_length	vas_lat_r.activation	vas_lat_r.fiber_length	vas_med_r.activation	vas_med_r.fiber_length	add_brev_l.activation	add_long_l.activation	add_long_l.fiber_length	add_mag3_l.activation	add_mag4_l.activation	add_mag4_l.fiber_length	add_mag2_l.activation	add_mag1_l.activation	bifemlh_l.activation	bifemlh_l.fiber_length	bifemsh_l.activation	ext_dig_l.activation	ext_dig_l.fiber_length	ext_hal_l.activation	ext_hal_l.fiber_length	flex_dig_l.activation	flex_dig_l.fiber_length	flex_hal_l.activation	flex_hal_l.fiber_length	lat_gas_l.activation	lat_gas_l.fiber_length	med_gas_l.activation	med_gas_l.fiber_length	glut_max1_l.activation	glut_max2_l.activation	glut_max3_l.activation	glut_med1_l.activation	glut_med2_l.activation	glut_med3_l.activation	glut_min1_l.activation	glut_min2_l.activation	glut_min3_l.activation	glut_min3_l.fiber_length	grac_l.activation	iliacus_l.activation	per_brev_l.activation	per_brev_l.fiber_length	per_long_l.activation	per_long_l.fiber_length	peri_l.activation	peri_l.fiber_length	psoas_l.activation	rect_fem_l.activation	rect_fem_l.fiber_length	sar_l.activation	semimem_l.activation	semimem_l.fiber_length	semiten_l.activation	semiten_l.fiber_length	soleus_l.activation	soleus_l.fiber_length	tfl_l.activation	tfl_l.fiber_length	tib_ant_l.activation	tib_ant_l.fiber_length	tib_post_l.activation	tib_post_l.fiber_length	vas_int_l.activation	vas_int_l.fiber_length	vas_lat_l.activation	vas_lat_l.fiber_length	vas_med_l.activation	vas_med_l.fiber_length
      0.00000000	      0.51507920	      1.54305771	     -0.27055846	      0.76629929	      1.55245646	     -0.26996473	      0.61477876	      1.50039178	     -0.16151415	      0.66506398	      1.50160605	     -0.15766076	      0.35527307	      1.54326917	     -0.32272695	      0.19868907	      1.56479888	     -0.35966395	      0.19742315	      1.47650302	     -0.35830549	      0.18833754	      1.57274600	     -0.25139873	      0.15661561	      1.57723246	     -0.11544207	      0.94065315	      1.52912156	     -0.28073017	      1.07247661	      1.53204610	     -0.34777810	      1.08233863	      1.45102141	     -0.32628980	      1.10051580	      1.56471061	     -0.23367124	      1.13335098	      1.58682117	     -0.10105198	      0.52865954	      1.02937322	     -0.16194556	      0.76362905	      1.02366571	     -0.16698873	      0.58473551	      1.03843322	     -0.34077705	      0.63908993	      1.02471644	     -0.35322178	      0.67985673	      1.03438320	     -0.34572390	      0.46576988	      0.88230329	     -0.17839263	      0.45684454	      0.88733071	     -0.28540854	      0.43869285	      0.75831083	     -0.29685856	      0.42937466	      0.52158188	     -0.26859971	      0.53886195	      0.49020780	     -0.25631073	      0.38544788	      0.37952568	     -0.26417185	      0.38228110	      0.26744849	     -0.26860424	      0.39711980	      0.37709207	     -0.34738498	      0.39391020	      0.25884251	     -0.35140171	      0.37182917	      0.10545505	     -0.31022485	      0.45296649	      0.09826166	     -0.28689827	      0.41398749	      0.03777017	     -0.36823549	      0.33636273	      0.03368237	     -0.18647768	      0.41387612	      0.05528941	     -0.10155207	      0.82082976	      0.87902602	     -0.19675927	      0.83112324	      0.74739961	     -0.19292102	      0.81258349	      0.88233707	     -0.30250210	      0.82407085	      0.74838210	     -0.31121883	      0.83696602	      0.51927654	     -0.27731785	      0.72995724	      0.49345785	     -0.27692622	      0.86526459	      0.41055210	     -0.26266276	      0.86533244	      0.42258656	     -0.35888285	      0.86981937	      0.30482651	     -0.36423698	      0.90495259	      0.09293251	     -0.31063727	      0.81449588	      0.09801539	     -0.30004961	      0.85910117	      0.03225112	     -0.38065059	      0.93631371	      0.02680068	     -0.20878032	      0.86026939	      0.05478683	     -0.11673163	      0.53190907	      0.96015405	     -0.24325112	      0.73609366	      0.94655522	     -0.24127276	      0.85910117	      0.00000000	     -0.38065059	      0.86026939	      0.00000000	     -0.11673163	      0.93631371	      0.00000000	     -0.20878032	      0.85972427	      0.09547395	     -0.30534344	      0.85972427	      0.00000000	     -0.30534344	      0.78346168	      0.50636720	     -0.27712198	      0.41398749	      0.00000000	     -0.36823549	      0.41387612	      0.00000000	     -0.10155207	      0.33636273	      0.00000000	     -0.18647768	      0.41239785	      0.10185832	     -0.29856161	      0.41239785	      0.00000000	     -0.29856161	      0.48411834	      0.50589483	     -0.26245515	      0.64614424	      1.02651956	     -0.16446717	      0.63229610	      1.03640820	     -0.34325039	      0.63992137	      1.50099890	     -0.15958751	     -0.04534432	      0.08046099	     -1.50816439	      0.64091452	      1.00246466	     -0.18028477	      0.01126443	     -0.10354975	     -0.15057564	     -0.01774971	     -0.01774971	     -0.00467591	      0.00000000	      0.00000000	      0.05613805	     -0.19931816	     -0.02317761	      0.04555947	      0.04555947	      0.03813019	      0.00000000	      0.00000000	      0.05203207	      0.05490969	     -0.07610089	      0.37006914	     -1.70787263	     -0.22025346	      1.57315767	      0.81119749	      0.00000000	      0.00000000	      0.66303099	     -1.70442665	      0.13642138	      1.49720710	      0.78290032	      0.00000000	      0.00000000	      0.00000000	      0.00000000	      0.00000000	      0.00000000	      0.00000000	      0.00000000	      0.00000000	      0.00000000	      0.00000000	      0.00000000	      0.00000000	      0.00000000	      0.00000000	      0.00000000	      0.00000000	      0.00000000	      0.00000000	      0.00000000	      0.00000000	      0.00000000	      0.00000000	      0.00000000	      0.00000000	      0.00000000	      0.00000000	      0.00000000	      0.00000000	      0.00000000	      0.00000000	      0.00000000	      0.00000000	      0.00000000	      0.00000000	      0.00000000	      0.00000000	      0.00000000	      0.00000000	      0.00000000	      0.00000000	      0.01000000	      0.01000000	      0.10000000	      0.01000000	      0.01000000	      0.10000000	      0.01000000	      0.01000000	      0.01000000	      0.10000000	      0.01000000	      0.01000000	      0.10000000	      0.01000000	      0.10000000	      0.01000000	      0.10000000	      0.01000000	      0.10000000	      0.01000000	      0.10000000	      0.01000000	      0.10000000	      0.01000000	      0.01000000	      0.01000000	      0.01000000	      0.01000000	      0.01000000	      0.01000000	      0.01000000	      0.01000000	      0.10000000	      0.01000000	      0.01000000	      0.01000000	      0.10000000	      0.01000000	      0.10000000	      0.01000000	      0.10000000	      0.01000000	      0.01000000	      0.10000000	      0.01000000	      0.01000000	      0.10000000	      0.01000000	      0.10000000	      0.01000000	      0.10000000	      0.01000000	      0.10000000	      0.01000000	      0.10000000	      0.01000000	      0.10000000	      0.01000000	      0.10000000	      0.01000000	      0.10000000	      0.01000000	      0.10000000	      0.01000000	      0.01000000	      0.10000000	      0.01000000	      0.01000000	      0.10000000	      0.01000000	      0.01000000	      0.01000000	      0.10000000	      0.01000000	      0.01000000	      0.10000000	      0.01000000	      0.10000000	      0.01000000	      0.10000000	      0.01000000	      0.10000000	      0.01000000	      0.10000000	      0.01000000	      0.10000000	      0.01000000	      0.01000000	      0.01000000	      0.01000000	      0.01000000	      0.01000000	      0.01000000	      0.01000000	      0.01000000	      0.10000000	      0.01000000	      0.01000000	      0.01000000	      0.10000000	      0.01000000	      0.10000000	      0.01000000	      0.10000000	      0.01000000	      0.01000000	      0.10000000	      0.01000000	      0.01000000	      0.10000000	      0.01000000	      0.10000000	      0.01000000	      0.10000000	      0.01000000	      0.10000000	      0.01000000	      0.10000000	      0.01000000	      0.10000000	      0.01000000	      0.10000000	      0.01000000	      0.10000000	      0.01000000	      0.10000000
